HIERARCHY
ROOT root
{
	OFFSET 0.000000 0.000000 0.000000
	CHANNELS 6 Xposition Yposition Zposition Zrotation Yrotation Xrotation
	JOINT lhip
	{
		OFFSET 0.058581 -0.082280 -0.017664
		CHANNELS 3 Zrotation Yrotation Xrotation
		JOINT lknee
		{
			OFFSET 0.043451 -0.386469 0.008037
			CHANNELS 3 Zrotation Yrotation Xrotation
			JOINT lankle
			{
				OFFSET -0.014790 -0.426874 -0.037428
				CHANNELS 3 Zrotation Yrotation Xrotation
				JOINT ltoe
				{
					OFFSET 0.041054 -0.060286 0.122042
					CHANNELS 3 Zrotation Yrotation Xrotation
					End Site
					{
						OFFSET 0.000000 0.000000 0.000000
					}
				}
			}
		}
	}
	JOINT rhip
	{
		OFFSET -0.060310 -0.090513 -0.013543
		CHANNELS 3 Zrotation Yrotation Xrotation
		JOINT rknee
		{
			OFFSET -0.043257 -0.383688 -0.004843
			CHANNELS 3 Zrotation Yrotation Xrotation
			JOINT rankle
			{
				OFFSET 0.019056 -0.420046 -0.034562
				CHANNELS 3 Zrotation Yrotation Xrotation
				JOINT rtoe
				{
					OFFSET -0.034840 -0.062106 0.130323
					CHANNELS 3 Zrotation Yrotation Xrotation
					End Site
					{
						OFFSET 0.000000 0.000000 0.000000
					}
				}
			}
		}
	}
	JOINT lowerback
	{
		OFFSET 0.004439 0.124404 -0.038385
		CHANNELS 3 Zrotation Yrotation Xrotation
		JOINT upperback
		{
			OFFSET 0.004488 0.137956 0.026820
			CHANNELS 3 Zrotation Yrotation Xrotation
			JOINT chest
			{
				OFFSET -0.002265 0.056032 0.002855
				CHANNELS 3 Zrotation Yrotation Xrotation
				JOINT lowerneck
				{
					OFFSET -0.013390 0.211636 -0.033468
					CHANNELS 3 Zrotation Yrotation Xrotation
					JOINT upperneck
					{
						OFFSET 0.010113 0.088937 0.050410
						CHANNELS 3 Zrotation Yrotation Xrotation
						End Site
						{
							OFFSET 0.000000 0.000000 0.000000
						}
					}
				}
				JOINT lclavicle
				{
					OFFSET 0.071702 0.114000 -0.018898
					CHANNELS 3 Zrotation Yrotation Xrotation
					JOINT lshoulder
					{
						OFFSET 0.122921 0.045205 -0.019046
						CHANNELS 3 Zrotation Yrotation Xrotation
						JOINT lelbow
						{
							OFFSET 0.255332 -0.015649 -0.022946
							CHANNELS 3 Zrotation Yrotation Xrotation
							JOINT lwrist
							{
								OFFSET 0.265709 0.012698 -0.007375
								CHANNELS 3 Zrotation Yrotation Xrotation
								End Site
								{
									OFFSET 0.000000 0.000000 0.000000
								}
							}
						}
					}
				}
				JOINT rclavicle
				{
					OFFSET -0.082954 0.112472 -0.023707
					CHANNELS 3 Zrotation Yrotation Xrotation
					JOINT rshoulder
					{
						OFFSET -0.113228 0.046853 -0.008472
						CHANNELS 3 Zrotation Yrotation Xrotation
						JOINT relbow
						{
							OFFSET -0.260127 -0.014369 -0.031269
							CHANNELS 3 Zrotation Yrotation Xrotation
							JOINT rwrist
							{
								OFFSET -0.269108 0.006794 -0.006027
								CHANNELS 3 Zrotation Yrotation Xrotation
								End Site
								{
									OFFSET 0.000000 0.000000 0.000000
								}
							}
						}
					}
				}
			}
		}
	}
}
MOTION
Frames: 5
Frame Time: 0.033333
-0.000495 -1.346853 0.993321 -165.449112 2.046284 87.926892 8.785224 1.580281 -1.349446 -5.147667 -2.798313 14.617561 -0.943550 7.818100 -15.191236 0.000000 -0.000000 0.000000 -3.262410 -1.493554 2.686203 2.955105 0.034403 1.350460 1.638495 -2.753837 -10.173091 0.000000 -0.000000 0.000000 -0.419210 0.707639 1.538058 2.976090 -1.882168 9.484399 0.535680 -1.242911 -3.630025 2.374935 -4.891705 9.327696 -1.803143 -4.813641 13.351540 -36.549932 -0.644205 7.511857 -50.601205 -7.948548 14.307841 11.054021 -21.420013 -3.294130 6.768604 -12.021942 -11.423232 32.216660 7.353815 6.268457 41.109847 11.765192 9.056590 -3.951953 7.171696 -14.914643 -4.083695 11.230940 -16.572517 
-0.006405 -1.345415 0.990459 -168.204831 1.775626 89.354637 8.163496 2.686154 -0.267140 -4.959741 -2.229797 10.701824 0.161369 9.411033 -12.742135 0.000000 -0.000000 0.000000 -4.124105 -0.793176 0.832662 2.941016 0.664601 1.509971 1.183315 -1.465151 -8.825702 0.000000 -0.000000 0.000000 -1.102769 0.867754 -2.477344 2.793552 -1.484938 13.413733 0.390246 -0.605278 -5.420261 1.149027 -4.549434 8.253600 0.415693 -4.168377 15.129195 -34.157227 -0.378074 6.362958 -53.026499 -7.456437 12.328921 8.126309 -20.563179 -5.108870 5.709218 -14.923938 -9.262217 30.050269 8.634901 5.859501 44.466723 10.943340 8.583338 -6.371603 5.882092 -18.204226 -0.674253 12.115391 -12.887381 
-0.013684 -1.348262 0.989395 -169.198559 1.969767 90.033978 7.563952 3.639035 0.103311 -4.578958 -1.472648 8.885858 0.745228 9.506438 -12.778870 0.000000 -0.000000 0.000000 -4.358640 -1.065109 -0.345978 2.665201 1.501707 1.956966 2.325031 -1.172705 -8.343181 0.000000 -0.000000 0.000000 -1.344149 0.652508 -2.994820 2.752576 -1.675624 12.607991 0.340432 -0.487944 -5.056257 1.543143 -4.499645 7.448108 0.201660 -3.594265 15.962729 -33.028300 0.222299 6.419495 -54.718068 -6.960220 13.011570 8.749554 -21.363241 -4.208445 3.024323 -12.426887 -7.432749 29.059170 8.217627 5.685248 45.848327 11.487635 8.748426 -7.342208 5.669290 -18.627717 0.896714 11.548495 -13.349827 
-0.026529 -1.352886 0.989233 -169.675839 2.300425 90.360400 6.302686 4.135128 1.617348 -3.652644 -1.172611 4.906960 1.742418 9.869280 -12.141348 0.000000 -0.000000 0.000000 -4.540981 -0.994065 -1.114321 2.020513 1.572929 2.178653 3.334402 -1.135496 -7.692743 0.000000 -0.000000 0.000000 -1.707580 0.039413 -2.582051 2.613793 -2.064348 11.302393 0.384699 -0.739575 -4.791621 1.715833 -4.195269 7.226526 0.313202 -2.985155 16.727516 -32.182620 0.698876 6.290078 -55.757427 -6.946470 13.450199 7.775293 -21.461240 -3.611041 3.582222 -13.120343 -7.220020 28.619867 7.661141 5.523942 47.030523 11.871395 9.157902 -8.098515 5.955872 -18.666105 0.640033 11.871943 -13.533771 
-0.031008 -1.354692 0.989375 -169.879066 2.365734 90.414914 5.892167 4.251095 2.148765 -3.408927 -1.227472 3.667221 2.014008 10.005552 -11.763403 0.000000 -0.000000 0.000000 -4.636728 -1.029364 -1.431634 1.770527 1.637158 2.348246 3.638227 -1.140716 -7.438236 0.000000 -0.000000 0.000000 -1.852356 -0.097350 -2.571819 2.522888 -2.148001 11.246250 0.351664 -0.753500 -4.760305 1.674298 -4.163460 7.192348 0.450683 -2.812303 16.879224 -32.073600 0.619697 6.303035 -55.918335 -6.893893 14.045377 7.852698 -21.265551 -2.319503 3.864732 -13.596950 -5.922529 28.632615 7.550895 5.464442 47.334493 11.909214 9.141758 -8.258695 6.201689 -18.712458 0.449310 12.101364 -13.883687 
